<?xml version="1.0" standalone="no"?>
<!DOCTYPE svg PUBLIC "-//W3C//DTD SVG 20010904//EN"
 "http://www.w3.org/TR/2001/REC-SVG-20010904/DTD/svg10.dtd">
<svg version="1.0" xmlns="http://www.w3.org/2000/svg"
 width="320.000000pt" height="320.000000pt" viewBox="0 0 320.000000 320.000000"
 preserveAspectRatio="xMidYMid meet">
<metadata>
Created by potrace 1.11, written by Peter Selinger 2001-2013
</metadata>
<g transform="translate(0.000000,320.000000) scale(0.100000,-0.100000)"
fill="#000000" stroke="none">
<path d="M1093 3169 c-65 -31 -100 -65 -136 -133 l-22 -41 0 -1395 0 -1395 27
-51 c50 -95 138 -147 248 -148 142 -1 257 99 276 240 6 50 14 71 14 40 0 -34
50 -115 92 -148 63 -51 160 -95 249 -114 95 -20 125 -22 214 -19 110 4 136 8
210 31 269 85 480 313 546 589 29 123 17 310 -27 440 -15 44 -27 69 -79 162
-39 72 -139 173 -235 237 -101 67 -184 101 -294 121 -89 15 -243 14 -318 -4
-65 -15 -155 -49 -208 -79 -78 -44 -115 -86 -147 -167 -9 -23 -12 151 -13 795
-1 454 -3 835 -6 848 -13 74 -76 152 -151 189 -83 40 -160 41 -240 2z m449
-2075 c35 -52 95 -98 143 -110 72 -18 148 -12 215 19 120 56 233 38 309 -49
43 -48 53 -77 56 -149 5 -132 -90 -233 -225 -240 -45 -3 -70 3 -125 27 -97 43
-196 45 -272 6 -72 -38 -129 -112 -146 -193 -3 -11 -5 165 -5 390 0 262 3 399
9 379 5 -18 24 -53 41 -80z"/>
</g>
</svg>
