<?xml version="1.0" standalone="no"?>
<!DOCTYPE svg PUBLIC "-//W3C//DTD SVG 20010904//EN"
 "http://www.w3.org/TR/2001/REC-SVG-20010904/DTD/svg10.dtd">
<svg version="1.0" xmlns="http://www.w3.org/2000/svg"
 width="1024.000000pt" height="1024.000000pt" viewBox="0 0 1024.000000 1024.000000"
 preserveAspectRatio="xMidYMid meet">
<metadata>
Created by potrace 1.11, written by Peter Selinger 2001-2013
</metadata>
<g transform="translate(0.000000,1024.000000) scale(0.100000,-0.100000)"
fill="#000000" stroke="none">
<path d="M798 10235 c-2 -2 -25 -6 -51 -9 -112 -15 -256 -74 -367 -149 -57
-39 -176 -158 -218 -218 -49 -72 -98 -177 -129 -275 l-28 -89 0 -4375 0 -4375
27 -87 c39 -123 81 -208 148 -296 70 -93 133 -152 225 -214 159 -105 322 -149
525 -143 119 4 130 6 243 41 231 72 424 241 530 466 62 129 87 249 88 408 0
56 2 101 4 99 2 -2 6 -24 10 -49 19 -135 106 -321 197 -425 55 -62 64 -72 118
-115 87 -71 114 -88 252 -157 244 -121 469 -196 719 -237 146 -25 237 -31 439
-31 201 1 300 8 450 35 81 15 88 16 175 39 647 167 1215 590 1551 1153 85 141
161 294 199 399 48 133 68 191 86 260 32 122 45 186 55 257 3 26 8 49 9 52 17
29 26 470 12 610 -31 325 -119 621 -272 917 -169 328 -384 595 -660 818 -157
127 -296 215 -490 310 -296 145 -532 214 -870 253 -79 9 -399 9 -500 -1 -319
-29 -616 -117 -933 -276 -255 -128 -401 -281 -492 -518 -16 -40 -27 -73 -24
-73 2 0 -1 -11 -6 -25 -5 -14 -12 -46 -16 -72 -3 -27 -8 -50 -10 -52 -2 -2 -4
1201 -3 2673 0 1472 -2 2680 -5 2684 -2 4 -7 29 -10 56 -4 28 -16 77 -27 110
-103 317 -369 552 -694 611 -41 8 -251 16 -257 10z m1007 -6381 c4 -21 11 -57
17 -79 7 -22 12 -42 12 -45 1 -3 10 -27 20 -55 74 -194 240 -377 425 -469 73
-37 168 -71 221 -80 19 -3 46 -9 60 -12 34 -7 216 -7 260 1 93 16 196 51 305
104 175 86 270 110 413 105 362 -10 662 -262 735 -616 14 -68 15 -212 2 -283
-33 -188 -146 -369 -305 -487 -32 -24 -151 -88 -175 -95 -5 -2 -44 -12 -85
-24 -50 -14 -110 -22 -177 -24 -136 -3 -242 24 -405 103 -148 72 -221 96 -333
109 -76 8 -124 8 -200 0 -103 -12 -120 -15 -185 -37 -222 -75 -396 -222 -514
-434 -31 -56 -81 -201 -90 -260 -4 -22 -9 -42 -11 -44 -3 -3 -4 597 -4 1333 0
735 2 1335 4 1333 3 -2 7 -22 10 -44z"/>
</g>
</svg>
